<svg xmlns="http://www.w3.org/2000/svg" version="1.1" xmlns:xlink="http://www.w3.org/1999/xlink" xmlns:svgjs="http://svgjs.dev/svgjs" width="1000" height="294" viewBox="0 0 1000 294"><g transform="matrix(1,0,0,1,0.16994382022460286,0.02270486877822009)"><svg viewBox="0 0 356 105" data-background-color="#ffffff" preserveAspectRatio="xMidYMid meet" height="294" width="1000" xmlns="http://www.w3.org/2000/svg" xmlns:xlink="http://www.w3.org/1999/xlink"><defs></defs><g id="tight-bounds" transform="matrix(1,0,0,1,-0.06049999999996203,-0.008108881706505144)"><svg viewBox="0 0 356.12052 105.01621776341304" height="105.01621776341304" width="356.12052"><g><svg viewBox="0 0 356.12052 105.01621776341304" height="105.01621776341304" width="356.12052"><g><svg viewBox="0 0 356.12052 105.01621776341304" height="105.01621776341304" width="356.12052"><g><path d="M0 105.016v-105.016h356.121v105.016z" fill="#6000e5" stroke="transparent" stroke-width="0" rx="0%" data-fill-palette-color="tertiary"></path><path d="M3.283 101.733v-98.45h349.554v98.45z" fill="#ffffff" stroke="transparent" stroke-width="0" rx="0%" data-fill-palette-color="quaternary"></path><path d="M9.85 95.166v-85.316h336.421v85.316z" fill="#6000e5" stroke="transparent" stroke-width="0" data-fill-palette-color="tertiary"></path></g><g transform="matrix(1,0,0,1,19.69974,19.69974)"><svg viewBox="0 0 316.72104 65.61673776341304" height="65.61673776341304" width="316.72104"><g><svg viewBox="0 0 316.72104 65.61673776341304" height="65.61673776341304" width="316.72104"><g transform="matrix(1,0,0,1,0,0)"><svg width="316.72104" viewBox="2.200000047683716 -31.549999237060547 154.6800079345703 32.04999923706055" height="65.61673776341304" data-palette-color="#ffffff"><path d="M24.05-8.95L24.05-8.95Q24.05 0 14.45 0L14.45 0 2.2 0 2.2-31.05 14.2-31.05Q18.95-31.05 21.25-29.13 23.55-27.2 23.55-23 23.55-18.8 20.1-16.6L20.1-16.6 20.1-16.3Q24.05-14.75 24.05-8.95ZM12.45-5.55Q13.95-5.55 14.48-6.23 15-6.9 15-9.03 15-11.15 14.45-12.03 13.9-12.9 12.45-12.9L12.45-12.9 10.85-12.9 10.85-5.55 12.45-5.55ZM12.5-17.75Q13.65-17.75 14.1-18.45 14.55-19.15 14.55-20.93 14.55-22.7 14.08-23.43 13.6-24.15 12.45-24.15L12.45-24.15 10.85-24.15 10.85-17.75 12.5-17.75ZM43.25-6.95L42.75 0 26.95 0 26.95-31.05 35.5-31.05 35.5-6.95 43.25-6.95ZM53.8-10.2Q53.8-8.65 54.45-7.9 55.09-7.15 56.57-7.15 58.05-7.15 58.62-7.88 59.2-8.6 59.2-10.25L59.2-10.25 59.2-31.05 67.8-31.05 67.8-9.75Q67.8-4.4 64.87-1.95 61.95 0.5 56.27 0.5 50.59 0.5 47.82-1.93 45.05-4.35 45.05-9.65L45.05-9.65 45.05-31.05 53.8-31.05 53.8-10.2ZM89.49-7L88.99 0 72.19 0 72.19-31.05 89.49-31.05 88.99-23.4 80.74-23.4 80.74-18.75 87.89-18.75 87.89-12.15 80.74-12.15 80.74-7 89.49-7ZM100.09-15.23Q100.09-10.8 100.97-8.93 101.84-7.05 103.84-7.05 105.84-7.05 109.49-8L109.49-8 110.79-0.95Q106.84 0.5 102.84 0.5L102.84 0.5Q96.84 0.5 94.12-3.48 91.39-7.45 91.39-15.33 91.39-23.2 94.24-27.38 97.09-31.55 103.54-31.55L103.54-31.55Q107.34-31.55 110.79-29.95L110.79-29.95 109.44-22.2Q105.54-23.5 103.99-23.5L103.99-23.5Q101.79-23.5 100.94-21.58 100.09-19.65 100.09-15.23ZM120.59-15.23Q120.59-10.8 121.46-8.93 122.34-7.05 124.34-7.05 126.34-7.05 129.99-8L129.99-8 131.29-0.95Q127.34 0.5 123.34 0.5L123.34 0.5Q117.34 0.5 114.61-3.48 111.89-7.45 111.89-15.33 111.89-23.2 114.74-27.38 117.59-31.55 124.04-31.55L124.04-31.55Q127.84-31.55 131.29-29.95L131.29-29.95 129.94-22.2Q126.04-23.5 124.49-23.5L124.49-23.5Q122.29-23.5 121.44-21.58 120.59-19.65 120.59-15.23ZM135.26-27.8Q138.13-31.55 144.69-31.55 151.24-31.55 154.06-27.85 156.88-24.15 156.88-15.83 156.88-7.5 153.99-3.5 151.09 0.5 144.59 0.5 138.09 0.5 135.24-3.45 132.38-7.4 132.38-15.73 132.38-24.05 135.26-27.8ZM148.28-15.8Q148.28-20.4 147.56-22.03 146.84-23.65 144.61-23.65 142.38-23.65 141.74-22.03 141.09-20.4 141.09-15.85L141.09-15.85 141.09-14.65Q141.09-9.8 141.81-8.28 142.53-6.75 144.76-6.75 146.99-6.75 147.63-8.2 148.28-9.65 148.28-14.2L148.28-14.2 148.28-15.8Z" opacity="1" transform="matrix(1,0,0,1,0,0)" fill="#ffffff" class="undefined-text-0" data-fill-palette-color="quaternary" id="text-0"></path></svg></g></svg></g></svg></g></svg></g><g></g></svg></g></svg><rect width="356.12052" height="105.01621776341304" fill="none" stroke="none" visibility="hidden"></rect></g></svg></g></svg>