<svg xmlns="http://www.w3.org/2000/svg" version="1.1" xmlns:xlink="http://www.w3.org/1999/xlink" xmlns:svgjs="http://svgjs.dev/svgjs" width="1000" height="361" viewBox="0 0 1000 361"><g transform="matrix(1,0,0,1,-0.6060600725173799,-0.22620352770587715)"><svg viewBox="0 0 396 143" data-background-color="#ffffff" preserveAspectRatio="xMidYMid meet" height="361" width="1000" xmlns="http://www.w3.org/2000/svg" xmlns:xlink="http://www.w3.org/1999/xlink"><defs></defs><g id="tight-bounds" transform="matrix(1,0,0,1,0.2400002112831885,0.08960416748459465)"><svg viewBox="0 0 395.52 142.82079103271394" height="142.82079103271394" width="395.52"><g><svg viewBox="0 0 546.8367243739982 197.46069362063255" height="142.82079103271394" width="395.52"><g transform="matrix(1,0,0,1,151.3167243739982,0)"><svg viewBox="0 0 395.52 197.46069362063255" height="197.46069362063255" width="395.52"><g><svg viewBox="0 0 395.52 197.46069362063255" height="197.46069362063255" width="395.52"><g><svg viewBox="0 0 395.52 123.26981300089045" height="123.26981300089045" width="395.52"><g transform="matrix(1,0,0,1,0,0)"><svg width="395.52" viewBox="4 -35 112.29000091552734 35" height="123.26981300089045" data-palette-color="#858585"><g class="undefined-text-0" data-fill-palette-color="primary" id="text-0"><path d="M8.75 0L4 0 4-35 25.35-35 25.35-30.7 8.75-30.7 8.75-20.45 21.55-20.45 21.55-16.15 8.75-16.15 8.75 0ZM34.9 0L30.15 0 30.15-35 34.9-35 34.9 0ZM47.65 0L42.9 0 42.9-35 48.05-35 65.3-8.8 65.3-35 70.09-35 70.09 0 66.05 0 47.65-27.65 47.65 0ZM82.84 0L78.09 0 78.09-35 82.84-35 82.84 0ZM92.54 0L87.04 0 98.94-17.65 87.24-35 92.74-35 101.69-21.75 110.59-35 116.09-35 104.44-17.65 116.29 0 110.79 0 101.69-13.55 92.54 0Z" fill="#858585" data-fill-palette-color="primary"></path></g></svg></g></svg></g><g transform="matrix(1,0,0,1,0,152.37085737488866)"><svg viewBox="0 0 232.209792 45.08983624574389" height="45.08983624574389" width="232.209792"><g transform="matrix(1,0,0,1,0,0)"><svg width="232.209792" viewBox="1.9500000476837158 -39.04999923706055 202.63999938964844 39.349998474121094" height="45.08983624574389" data-palette-color="#c9c9c9"><path d="M3.45 0L3.45 0Q2.8 0 2.38-0.43 1.95-0.85 1.95-1.5L1.95-1.5 1.95-37.55Q1.95-38.2 2.38-38.63 2.8-39.05 3.45-39.05L3.45-39.05 27.5-39.05Q28.1-39.05 28.55-38.63 29-38.2 29-37.55L29-37.55Q29-36.95 28.55-36.5 28.1-36.05 27.5-36.05L27.5-36.05 4.95-36.05 4.95-21.05 21.5-21.05Q22.15-21.05 22.58-20.63 23-20.2 23-19.55L23-19.55Q23-18.9 22.58-18.45 22.15-18 21.5-18L21.5-18 4.95-18 4.95-1.5Q4.95-0.85 4.53-0.43 4.1 0 3.45 0ZM38.25 0L38.25 0Q37.6 0 37.17-0.43 36.75-0.85 36.75-1.5L36.75-1.5 36.75-25.85Q36.75-26.55 37.17-26.95 37.6-27.35 38.25-27.35L38.25-27.35Q38.95-27.35 39.35-26.95 39.75-26.55 39.75-25.85L39.75-25.85 39.75-1.5Q39.75-0.85 39.35-0.43 38.95 0 38.25 0ZM38.2-33.1L38.2-33.1Q37.25-33.1 36.57-33.77 35.9-34.45 35.9-35.45L35.9-35.45Q35.9-36.6 36.62-37.18 37.35-37.75 38.25-37.75L38.25-37.75Q39.1-37.75 39.82-37.18 40.55-36.6 40.55-35.45L40.55-35.45Q40.55-34.45 39.87-33.77 39.2-33.1 38.2-33.1ZM73.4 0L73.4 0Q72.75 0 72.32-0.43 71.9-0.85 71.9-1.5L71.9-1.5 71.9-14.95Q71.9-18.25 70.62-20.4 69.34-22.55 67.17-23.63 65-24.7 62.25-24.7L62.25-24.7Q59.55-24.7 57.4-23.68 55.25-22.65 54-20.85 52.75-19.05 52.75-16.8L52.75-16.8 50.25-16.8Q50.45-19.9 52.1-22.38 53.75-24.85 56.4-26.28 59.05-27.7 62.25-27.7L62.25-27.7Q65.84-27.7 68.72-26.23 71.59-24.75 73.25-21.93 74.9-19.1 74.9-14.95L74.9-14.95 74.9-1.5Q74.9-0.85 74.47-0.43 74.05 0 73.4 0ZM51.25 0L51.25 0Q50.6 0 50.17-0.43 49.75-0.85 49.75-1.5L49.75-1.5 49.75-25.85Q49.75-26.55 50.17-26.95 50.6-27.35 51.25-27.35L51.25-27.35Q51.95-27.35 52.35-26.95 52.75-26.55 52.75-25.85L52.75-25.85 52.75-1.5Q52.75-0.85 52.35-0.43 51.95 0 51.25 0ZM95.89 0.3L95.89 0.3Q91.89 0.3 88.72-1.53 85.54-3.35 83.72-6.53 81.89-9.7 81.89-13.65L81.89-13.65Q81.89-17.65 83.72-20.83 85.54-24 88.72-25.83 91.89-27.65 95.89-27.65L95.89-27.65Q99.89-27.65 103.04-25.83 106.19-24 108.02-20.83 109.84-17.65 109.84-13.65L109.84-13.65 108.59-11.65Q108.59-8.25 106.92-5.55 105.24-2.85 102.39-1.28 99.54 0.3 95.89 0.3ZM95.89-2.5L95.89-2.5Q99.04-2.5 101.52-3.98 103.99-5.45 105.42-7.98 106.84-10.5 106.84-13.65L106.84-13.65Q106.84-16.85 105.42-19.38 103.99-21.9 101.52-23.38 99.04-24.85 95.89-24.85L95.89-24.85Q92.79-24.85 90.29-23.38 87.79-21.9 86.34-19.38 84.89-16.85 84.89-13.65L84.89-13.65Q84.89-10.5 86.34-7.98 87.79-5.45 90.29-3.98 92.79-2.5 95.89-2.5ZM108.39 0L108.39 0Q107.69 0 107.27-0.43 106.84-0.85 106.84-1.5L106.84-1.5 106.84-10.65 107.79-13.65 109.84-13.65 109.84-1.5Q109.84-0.85 109.44-0.43 109.04 0 108.39 0ZM140.99 0L140.99 0Q140.34 0 139.92-0.43 139.49-0.85 139.49-1.5L139.49-1.5 139.49-14.95Q139.49-18.25 138.22-20.4 136.94-22.55 134.77-23.63 132.59-24.7 129.84-24.7L129.84-24.7Q127.14-24.7 124.99-23.68 122.84-22.65 121.59-20.85 120.34-19.05 120.34-16.8L120.34-16.8 117.84-16.8Q118.04-19.9 119.69-22.38 121.34-24.85 123.99-26.28 126.64-27.7 129.84-27.7L129.84-27.7Q133.44-27.7 136.32-26.23 139.19-24.75 140.84-21.93 142.49-19.1 142.49-14.95L142.49-14.95 142.49-1.5Q142.49-0.85 142.07-0.43 141.64 0 140.99 0ZM118.84 0L118.84 0Q118.19 0 117.77-0.43 117.34-0.85 117.34-1.5L117.34-1.5 117.34-25.85Q117.34-26.55 117.77-26.95 118.19-27.35 118.84-27.35L118.84-27.35Q119.54-27.35 119.94-26.95 120.34-26.55 120.34-25.85L120.34-25.85 120.34-1.5Q120.34-0.85 119.94-0.43 119.54 0 118.84 0ZM163.09 0.3L163.09 0.3Q159.19 0.3 156.11-1.55 153.04-3.4 151.26-6.55 149.49-9.7 149.49-13.65L149.49-13.65Q149.49-17.65 151.14-20.8 152.79-23.95 155.69-25.78 158.59-27.6 162.34-27.6L162.34-27.6Q165.54-27.6 168.19-26.38 170.84-25.15 172.79-22.65L172.79-22.65Q173.19-22.15 173.09-21.6 172.99-21.05 172.44-20.7L172.44-20.7Q171.99-20.35 171.44-20.43 170.89-20.5 170.49-21L170.49-21Q167.29-24.8 162.34-24.8L162.34-24.8Q159.39-24.8 157.16-23.35 154.94-21.9 153.71-19.4 152.49-16.9 152.49-13.65L152.49-13.65Q152.49-10.5 153.84-7.98 155.19-5.45 157.56-3.98 159.94-2.5 163.09-2.5L163.09-2.5Q165.14-2.5 166.96-3.1 168.79-3.7 170.14-4.95L170.14-4.95Q170.59-5.35 171.14-5.4 171.69-5.45 172.09-5.05L172.09-5.05Q172.59-4.6 172.61-4.03 172.64-3.45 172.19-3.05L172.19-3.05Q168.54 0.3 163.09 0.3ZM192.74 0.25L192.74 0.25Q188.79 0.25 185.71-1.53 182.64-3.3 180.89-6.45 179.14-9.6 179.14-13.65L179.14-13.65Q179.14-17.75 180.79-20.88 182.44-24 185.34-25.8 188.24-27.6 191.99-27.6L191.99-27.6Q195.69-27.6 198.54-25.88 201.39-24.15 202.99-21.13 204.59-18.1 204.59-14.15L204.59-14.15Q204.59-13.5 204.19-13.13 203.79-12.75 203.14-12.75L203.14-12.75 181.14-12.75 181.14-15.35 203.94-15.35 201.74-13.7Q201.84-16.95 200.64-19.45 199.44-21.95 197.21-23.38 194.99-24.8 191.99-24.8L191.99-24.8Q189.14-24.8 186.91-23.38 184.69-21.95 183.41-19.45 182.14-16.95 182.14-13.65L182.14-13.65Q182.14-10.4 183.49-7.9 184.84-5.4 187.24-3.98 189.64-2.55 192.74-2.55L192.74-2.55Q194.69-2.55 196.66-3.23 198.64-3.9 199.79-5L199.79-5Q200.19-5.4 200.76-5.43 201.34-5.45 201.74-5.1L201.74-5.1Q202.29-4.65 202.31-4.1 202.34-3.55 201.84-3.1L201.84-3.1Q200.24-1.65 197.66-0.7 195.09 0.25 192.74 0.25Z" opacity="1" transform="matrix(1,0,0,1,0,0)" fill="#c9c9c9" class="undefined-text-1" data-fill-palette-color="secondary" id="text-1"></path></svg></g></svg></g></svg></g></svg></g><g transform="matrix(1,0,0,1,0,40.60898124802515)"><svg viewBox="0 0 122.21567999999998 116.24273112458225" height="116.24273112458225" width="122.21567999999998"><g><svg xmlns="http://www.w3.org/2000/svg" xmlns:xlink="http://www.w3.org/1999/xlink" version="1.1" x="0" y="0" viewBox="11.100000381469727 11.899999618530273 79.80000305175781 75.9000015258789" enable-background="new 0 0 100 100" xml:space="preserve" height="116.24273112458225" width="122.21567999999998" class="icon-icon-0" data-fill-palette-color="accent" id="icon-0"><g fill="#adadad" data-fill-palette-color="accent"><polygon points="42.7,70 80.6,15 76.1,11.9 41.4,62.2 21.9,47.8 18.6,52.2  " fill="#adadad" data-fill-palette-color="accent"></polygon><polygon points="86.4,19 44.3,80 14.4,57.8 11.1,62.2 45.6,87.8 90.9,22.1  " fill="#adadad" data-fill-palette-color="accent"></polygon></g></svg></g></svg></g></svg></g></svg><rect width="395.52" height="142.82079103271394" fill="none" stroke="none" visibility="hidden"></rect></g></svg></g></svg>