<svg xmlns="http://www.w3.org/2000/svg" version="1.1" xmlns:xlink="http://www.w3.org/1999/xlink" xmlns:svgjs="http://svgjs.dev/svgjs" width="1000" height="351" viewBox="0 0 1000 351"><g transform="matrix(1,0,0,1,-0.6060606060606801,-0.04421742933487849)"><svg viewBox="0 0 396 139" data-background-color="#ffffff" preserveAspectRatio="xMidYMid meet" height="351" width="1000" xmlns="http://www.w3.org/2000/svg" xmlns:xlink="http://www.w3.org/1999/xlink"><defs></defs><g id="tight-bounds" transform="matrix(1,0,0,1,0.24000000000003752,0.017510605918943156)"><svg viewBox="0 0 395.5199999999999 132.89946786493257" height="132.89946786493257" width="395.5199999999999"><g><svg viewBox="0 0 673.1053691769765 226.17148407324328" height="132.89946786493257" width="395.5199999999999"><g transform="matrix(1,0,0,1,0,58.63941426110313)"><svg viewBox="0 0 395.52 108.89265555103702" height="108.89265555103702" width="395.52"><g><svg viewBox="0 0 395.52 108.89265555103702" height="108.89265555103702" width="395.52"><g><svg viewBox="0 0 395.52 108.89265555103702" height="108.89265555103702" width="395.52"><g transform="matrix(1,0,0,1,0,0)"><svg width="395.52" viewBox="4.699999809265137 -33.77000045776367 124.30999755859375 34.22999954223633" height="108.89265555103702" data-palette-color="#adacac"><path d="M26.64-33.27L28.89-33.27 28.89 0 26.54 0 6.85-29.52 6.67-29.52Q6.93-24.49 6.93-21.56L6.93-21.56 6.93 0 4.7 0 4.7-33.27 7.03-33.27 26.72-3.77 26.85-3.77Q26.64-8.14 26.64-11.55L26.64-11.55 26.64-33.27ZM51.4-1.72Q57.38-1.72 60.55-5.59 63.72-9.45 63.72-16.66 63.72-23.86 60.55-27.69 57.38-31.52 51.43-31.52 45.47-31.52 42.26-27.67 39.05-23.81 39.05-16.66 39.05-9.5 42.24-5.61 45.42-1.72 51.4-1.72ZM40.47-4.15L40.47-4.15Q36.52-8.75 36.52-16.7 36.52-24.65 40.52-29.21 44.51-33.77 51.46-33.77 58.42-33.77 62.33-29.2 66.25-24.62 66.25-16.67 66.25-8.72 62.3-4.13 58.34 0.46 51.4 0.46 44.46 0.46 40.47-4.15ZM91.98-31.07L81.16-31.07 81.16 0 78.81 0 78.81-31.07 68.02-31.07 68.02-33.27 91.98-33.27 91.98-31.07ZM99.23-33.27L99.23 0 96.91 0 96.91-33.27 99.23-33.27ZM128.15-33.27L117.86-17.39 129.01 0 126.33 0 116.52-15.52 106.51 0 103.93 0 115.13-17.34 104.94-33.27 107.57-33.27 116.55-19.01 125.67-33.27 128.15-33.27Z" opacity="1" transform="matrix(1,0,0,1,0,0)" fill="#adacac" class="undefined-text-0" data-fill-palette-color="primary" id="text-0"></path></svg></g></svg></g></svg></g></svg></g><g transform="matrix(1,0,0,1,446.93388510373325,0)"><svg viewBox="0 0 226.17148407324328 226.17148407324328" height="226.17148407324328" width="226.17148407324328"><g><svg></svg></g><g id="icon-0"><svg viewBox="0 0 226.17148407324328 226.17148407324328" height="226.17148407324328" width="226.17148407324328"><g><path d="M0 113.086c0-62.456 50.63-113.086 113.086-113.086 62.456 0 113.086 50.63 113.085 113.086 0 62.456-50.63 113.086-113.085 113.085-62.456 0-113.086-50.63-113.086-113.085zM113.086 216.351c57.032 0 103.266-46.234 103.265-103.265 0-57.032-46.234-103.266-103.265-103.266-57.032 0-103.266 46.234-103.266 103.266 0 57.032 46.234 103.266 103.266 103.265z" data-fill-palette-color="tertiary" fill="#ffffff" stroke="transparent"></path></g><g transform="matrix(1,0,0,1,70.46567205331817,48.70782599610958)"><svg viewBox="0 0 85.24013996660692 128.75583208102412" height="128.75583208102412" width="85.24013996660692"><g><svg xmlns="http://www.w3.org/2000/svg" xmlns:xlink="http://www.w3.org/1999/xlink" version="1.1" x="0" y="0" viewBox="24.761856079101562 5 59.5826416015625 90" enable-background="new 0 0 100 100" xml:space="preserve" height="128.75583208102412" width="85.24013996660692" class="icon-x-0" data-fill-palette-color="accent" id="x-0"><g fill="#eaeaea" data-fill-palette-color="accent"><path d="M73.76 35.603C86.875 48 91.5 66.25 65.633 82.379c3.64-4.928 5.654-9.794 6.096-14.669 0.951-10.516-5.606-19.072-12.835-26.752C48.298 29.7 47.51 18.84 56.413 6.782 54.578 22.641 64.6 26.944 73.76 35.603zM45.288 93.716c6.184-13.053 7.276-20.302-8.197-34.939-4.204-3.977-7.451-8.029-9.71-12.086-2.881 6.435-5.164 20.081 3.244 27.935C36.312 79.938 44.125 83.125 45.288 93.716zM56.709 43.014C48.183 33.954 41.999 21.253 54 5 21.497 17.692 19.625 38.125 39.151 56.597 55.603 72.158 54.75 80.75 48 95 79.875 71.5 68.709 55.764 56.709 43.014z" fill="#eaeaea" data-fill-palette-color="accent"></path></g><g display="none" fill="#eaeaea" data-fill-palette-color="accent"><path display="inline" d="M54 5C16.75 17.5 14.875 56.5 26.75 70.762c10.558 12.68 15.407 7.949 19.675 20.824" fill="#eaeaea" data-fill-palette-color="accent"></path><line display="inline" x1="56.988" y1="5.261" x2="45.528" y2="136.262" fill="#eaeaea" data-fill-palette-color="accent"></line><line display="inline" x1="54.131" y1="3.502" x2="42.67" y2="134.502" fill="#eaeaea" data-fill-palette-color="accent"></line><path display="inline" d="M42.875 76" fill="#eaeaea" data-fill-palette-color="accent"></path></g></svg></g></svg></g></svg></g></svg></g></svg></g></svg><rect width="395.5199999999999" height="132.89946786493257" fill="none" stroke="none" visibility="hidden"></rect></g></svg></g></svg>