<?xml version="1.0" encoding="UTF-8" standalone="no"?>
<svg
   version="1.1"
   viewBox="0 0 1052.4 666.38999"
   id="svg91"
   sodipodi:docname="dawki.svg"
   width="1052.4"
   height="666.39001"
   inkscape:version="1.2.1 (9c6d41e410, 2022-07-14, custom)"
   xmlns:inkscape="http://www.inkscape.org/namespaces/inkscape"
   xmlns:sodipodi="http://sodipodi.sourceforge.net/DTD/sodipodi-0.dtd"
   xmlns="http://www.w3.org/2000/svg"
   xmlns:svg="http://www.w3.org/2000/svg">
  <defs
     id="defs95" />
  <sodipodi:namedview
     id="namedview93"
     pagecolor="#ffffff"
     bordercolor="#000000"
     borderopacity="0.25"
     inkscape:showpageshadow="2"
     inkscape:pageopacity="0.0"
     inkscape:pagecheckerboard="0"
     inkscape:deskcolor="#d1d1d1"
     showgrid="false"
     inkscape:zoom="1.1302396"
     inkscape:cx="526.43705"
     inkscape:cy="359.65825"
     inkscape:window-width="1920"
     inkscape:window-height="1050"
     inkscape:window-x="0"
     inkscape:window-y="0"
     inkscape:window-maximized="1"
     inkscape:current-layer="svg91" />
  <g
     transform="matrix(1.2369968,0,0,1.2369968,-229.28497,-498.58132)"
     id="g89">
    <path
       d="m 356.97,780.26 c -6.04,95.978 -57.7,146.85 -100.35,135.84 22.57,-45.92 55.817,-91.212 100.35,-135.84 z"
       fill="#003380"
       id="path69" />
    <path
       d="m 209.21,809.96 c 182.54,97.716 320.54,5.3262 455.4,-103.58 35.955,-29.035 71.686,-59.244 107.98,-87.337 61.58,-62.953 57.171,-126.92 105.86,-155.31 -26.902,9.0484 -65.584,46.279 -87.251,76.5 -54.612,35.834 -145.59,79.495 -210.59,44.632 -10.946,-6.5539 -65.723,33.988 -78.296,36.1 -125.41,21.064 -186.64,41.936 -296.35,135.79 -14.99,11.021 -15.839,21.713 -16.989,28.337 -1.5699,9.045 1.9615,13.182 20.238,24.87 z"
       fill="#003380"
       id="path71" />
    <path
       d="m 849.22,485.16 c 62.022,-8.189 124.04,-14.927 186.07,-45.786 -42.539,-29.14 -86.142,-31.248 -164.63,17.535 -13.234,-59.07 -38.202,-50.671 -61.372,-52.605 -8.2638,39.282 12.136,62.184 39.941,80.856 z"
       fill="#0044aa"
       id="path73" />
    <path
       d="m 189.21,788.96 c 73.433,6.7597 106.44,0.65574 148,-2.7252 16.985,-0.18818 17.675,0.34622 24.957,6.0577 99.058,73.104 150.96,0.0939 264.46,-55.38 -101.13,75.455 -225.57,158 -374.69,94.438 -21.56,-9.1906 -47.826,-20.179 -65.057,-37.343 -1.4231,-2.3192 -1.4055,-4.8945 2.3286,-5.0479 z"
       fill="#80b3ff"
       id="path75" />
    <path
       d="m 434.23,807.61 c 135.2,25.861 199.45,91.726 177.3,135.41 -61.673,-33.554 -120.82,-78.475 -177.3,-135.41 z"
       fill="#0044aa"
       id="path77" />
    <path
       transform="matrix(0.079109,0,0,0.079109,382.84,526.07)"
       d="m 64.65,3149.4 a 64.65,64.65 0 1 1 -129.3,0 64.65,64.65 0 1 1 129.3,0 z"
       id="path79" />
    <path
       transform="matrix(0.12431,0,0,0.018835,393.8,591.45)"
       d="m 64.65,3149.4 a 64.65,64.65 0 1 1 -129.3,0 64.65,64.65 0 1 1 129.3,0 z"
       id="path81" />
    <path
       d="m 204.86,789.64 c -8.3047,-0.67873 -15.259,-1.2781 -15.454,-1.3322 -0.65383,-0.18191 0.9705,-8.9873 2.4143,-13.087 2.5796,-7.3254 4.0968,-13.936 22.344,-29.153 73.951,-61.673 129.56,-88.354 203.45,-107.43 19.683,-5.0811 27.78,-6.7966 61.476,-13.025 28.591,-5.2851 28.042,-5.078 54.555,-20.585 18.775,-10.982 35.483,-19.169 40.723,-19.955 3.4144,-0.51195 5.473,-0.0324 11.901,2.7751 30.589,13.358 65.169,13.378 108.11,0.0637 62.123,-14.568 97.623,-55.247 138.49,-93.089 12.064,-10.838 17.39,-17.578 19.578,-16.738 1.1274,0.43258 -4.5988,8.33 -7.9744,12.474 -2.399,2.9453 -7.2736,10.26 -10.832,16.256 -8.7031,14.662 -11.769,20.823 -21.064,27.561 -37.244,27.001 -56.177,96.189 -360.56,172.69 -28.185,7.0841 -73.854,12.795 -78.141,14.863 -10.424,5.0305 -18.435,10.378 -43.706,29.173 -29.402,21.868 -42.648,29.95 -60.182,36.722 l -8.5537,3.3036 -20.738,-0.12901 c -11.406,-0.0712 -27.533,-0.68424 -35.837,-1.3628 z m 196.7,-138.43 c 1.7046,-1.5214 -6.2821,-2.7463 -12.159,-1.8649 -8.0464,1.2066 -1.3777,3.6524 7.3698,2.7029 2.411,-0.26158 4.5664,-0.63879 4.7896,-0.83798 z"
       fill="#0044aa"
       id="path83" />
    <path
       transform="matrix(0.12055,0,0,0.12055,344.89,369.13)"
       d="m 338.57,3370.9 a 17.857,17.143 0 1 1 -35.714,0 17.857,17.143 0 1 1 35.714,0 z"
       fill="#ffffff"
       id="path85" />
    <path
       d="m 605.15,937.91 c -13.359,-8.2853 -10.29,-17.636 -41.015,-48.066 -28.626,-28.352 -42.332,-28.639 -54.242,-38.165 -17.93,-14.342 -39.472,-28.418 -56.729,-37.069 -3.544,-1.7766 -16.288,-6.2939 -16.115,-6.4662 0.47337,-0.47351 19.029,2.2085 30.581,5.3444 56.626,15.371 97.514,38.179 124.23,65.082 11.741,11.821 18.888,23.081 22.116,34.843 1.8304,6.6687 1.7092,16.892 -0.27544,23.248 -0.85768,2.7467 -1.783,4.9887 -2.0563,4.9822 -0.27322,-0.0108 -3.1977,-1.6871 -6.499,-3.7344 z"
       fill="#003380"
       id="path87" />
  </g>
</svg>
